<?xml version="1.0"?>
<svg xmlns="http://www.w3.org/2000/svg" xmlns:xlink="http://www.w3.org/1999/xlink" xmlns:svgjs="http://svgjs.com/svgjs" version="1.1" width="512" height="512" x="0" y="0" viewBox="0 0 512 512" style="enable-background:new 0 0 512 512" xml:space="preserve" class=""><g>
<path xmlns="http://www.w3.org/2000/svg" style="" d="M476.499,186.499l-13.202,43.2L316,377H196L47.501,228.5L35.5,186.499l60-60  C98.2,123.5,102.1,122,106,122h300c3.9,0,7.8,1.5,10.499,4.499L476.499,186.499z" fill="#ffc006" data-original="#fedb41" class=""/>
<path xmlns="http://www.w3.org/2000/svg" style="" d="M476.499,186.499l-13.202,43.2L316,377h-60V122h150c3.9,0,7.8,1.5,10.499,4.499L476.499,186.499z" fill="#f3b600" data-original="#ffcc33" class=""/>
<path xmlns="http://www.w3.org/2000/svg" style="" d="M406,0H106c-8.401,0-15,6.599-15,15v392c0,8.399,6.599,15,15,15h300c8.401,0,15-6.601,15-15V15  C421,6.599,414.401,0,406,0z" fill="#cae8f9" data-original="#cae8f9" class=""/>
<path xmlns="http://www.w3.org/2000/svg" style="" d="M421,15v392c0,8.399-6.599,15-15,15H256V0h150C414.401,0,421,6.599,421,15z" fill="#b7e0f6" data-original="#b7e0f6" class=""/>
<path xmlns="http://www.w3.org/2000/svg" style="" d="M301,167c0-24.901-20.098-45-45-45s-45,20.099-45,45c0,24.899,20.098,45,45,45  c11.7,0,21.899-4.501,30-11.7c29.099,26.4,75,5.4,75-33.3c0-57.9-47.102-105-105-105s-105,47.1-105,105c0,36,17.999,69,48.6,88.5  c17.399,11.1,36.603,16.5,56.4,16.5c16.201,0,32.402-3.6,47.999-10.8c7.5-3.602,10.8-12.301,7.203-19.801  c-3.303-7.8-12.305-10.8-19.805-7.5C279.701,239.299,267.7,242,256,242c-14.099,0-27.898-3.9-40.203-11.7  C193.898,216.2,181,192.8,181,167c0-41.4,33.6-75,75-75s75,33.6,75,75C331,186.799,301,186.799,301,167z M270.7,168.8  c-0.901,7.5-7.2,13.2-14.7,13.2c-8.401,0-15-6.601-15-15c0-8.401,6.599-15,15-15c7.8,0,14.099,6.299,14.7,14.099V168.8z" fill="#17ace8" data-original="#17ace8"/>
<g xmlns="http://www.w3.org/2000/svg">
	<path style="" d="M311.203,241.399c3.596,7.5,0.297,16.199-7.203,19.801c-15.598,7.2-31.799,10.8-48,10.8v-30   c11.7,0,23.701-2.701,35.398-8.101C298.898,230.6,307.899,233.599,311.203,241.399z" fill="#1689fc" data-original="#1689fc"/>
	<path style="" d="M361,167c0,38.699-45.901,59.7-75,33.3c-8.101,7.2-18.3,11.7-30,11.7v-30   c7.5,0,13.799-5.7,14.7-13.2v-2.701c-0.601-7.8-6.9-14.099-14.7-14.099v-30c24.902,0,45,20.099,45,45c0,19.799,30,19.799,30,0   c0-41.4-33.6-75-75-75V62C313.898,62,361,109.1,361,167z" fill="#1689fc" data-original="#1689fc"/>
</g>
<path xmlns="http://www.w3.org/2000/svg" style="" d="M35.395,186.395C32.582,189.207,31,193.016,31,197v270c0,11.684,4.398,22.473,13.154,31.844  l43.799-13.798L206.781,366.22L196,347L35.395,186.395z" fill="#fea832" data-original="#fea832" class=""/>
<path xmlns="http://www.w3.org/2000/svg" style="" d="M481,467V197c0-3.984-1.582-7.793-4.395-10.605L316,347l-12.877,17.123L424.061,485.06l43.785,13.784  c0.11-0.103,0.242-0.128,0.352-0.233C476.576,489.749,481,478.821,481,467z" fill="#fe9923" data-original="#fe9923" class=""/>
<path xmlns="http://www.w3.org/2000/svg" style="" d="M467.802,498.8C458.5,507.499,447.7,512,436,512H76c-11.7,0-22.8-4.501-31.501-12.9  c-0.3,0-0.3,0-0.3-0.3L196,347h120L467.802,498.8z" fill="#ffc006" data-original="#fedb41" class=""/>
<path xmlns="http://www.w3.org/2000/svg" style="" d="M467.802,498.8C458.5,507.499,447.7,512,436,512H256V347h60L467.802,498.8z" fill="#f3b600" data-original="#ffcc33" class=""/>
<g xmlns="http://www.w3.org/2000/svg">
</g>
<g xmlns="http://www.w3.org/2000/svg">
</g>
<g xmlns="http://www.w3.org/2000/svg">
</g>
<g xmlns="http://www.w3.org/2000/svg">
</g>
<g xmlns="http://www.w3.org/2000/svg">
</g>
<g xmlns="http://www.w3.org/2000/svg">
</g>
<g xmlns="http://www.w3.org/2000/svg">
</g>
<g xmlns="http://www.w3.org/2000/svg">
</g>
<g xmlns="http://www.w3.org/2000/svg">
</g>
<g xmlns="http://www.w3.org/2000/svg">
</g>
<g xmlns="http://www.w3.org/2000/svg">
</g>
<g xmlns="http://www.w3.org/2000/svg">
</g>
<g xmlns="http://www.w3.org/2000/svg">
</g>
<g xmlns="http://www.w3.org/2000/svg">
</g>
<g xmlns="http://www.w3.org/2000/svg">
</g>
</g></svg>
