<?xml version="1.0" encoding="utf-8"?><svg xmlns="http://www.w3.org/2000/svg" xmlns:xlink="http://www.w3.org/1999/xlink"><symbol viewBox="0 0 15 21" id="Mouse_s" xmlns="http://www.w3.org/2000/svg"><g fill-rule="evenodd"><path d="M15 21H0V0h15v21zM14 1H1v19h13V1z" fill-rule="nonzero"/><path d="M7.25 4.25h1v4.5h-1z"/></g></symbol><symbol viewBox="0 0 482.491 482.491" id="lamp_white_s" xmlns="http://www.w3.org/2000/svg"><defs><clipPath id="ba"><path d="M0 0h360v488H0z"/></clipPath></defs><g data-name="Artboard – 1" clip-path="url(#ba)"><path data-name="Path 1" d="M210.789 245.643V200.5a31.422 31.422 0 00-20.686-29.53V10.725a10.725 10.725 0 00-21.45 0V170.97a31.42 31.42 0 00-20.686 29.53v45.143C67.232 259.935 4.939 328.3 0 411.858h358.756c-4.939-83.558-67.234-151.923-147.967-166.215z"/><path data-name="Path 2" d="M179.378 482.491a105.771 105.771 0 0089.315-49.183H90.063a105.769 105.769 0 0089.315 49.183z"/></g></symbol><symbol viewBox="0 0 261.87 169.88" id="logo_01_s" xmlns="http://www.w3.org/2000/svg"><path d="M176.94 0l-23 23-23-23-10.26 10.26 74 74.68-40.74 40.72-12.39-12.39 28.33-28.33L84.94 0 0 84.94l84.94 84.94 23-23 23 23 10.53-10.53-74.25-74.41 40.72-40.72 12.39 12.39L92 84.94l84.94 84.94 84.94-84.94zM46 84.94l51.33 51.33-12.39 12.39-63.72-63.72 63.72-63.72 12.39 12.39zm67.22 0l17.72-17.72 17.72 17.72-17.72 17.72zm51.33 51.33l51.33-51.33-51.33-51.33 12.39-12.39 63.72 63.72-63.72 63.72z"/></symbol><symbol id="logo_02_s" viewBox="0 0 245 175" xml:space="preserve" xmlns="http://www.w3.org/2000/svg"><style>.dst0{fill:#333}</style><path class="dst0" d="M76.2 22.9L59.7 68.4 42.9 114C39 124.7 35 134.7 29 144.5c-2.7 4.4-5.6 8.6-8.7 12.7-4.5 6-9.5 11.7-14.7 17h54.9c-1 0-2.6-1.3-3.4-1.7-2.9-1.7-5.7-3.7-8.1-5.9-1.5-1.4-2.8-2.8-4.1-4.4-11.7-17.2-3.2-35.3 3.2-52.5 5.8-16 11.7-31.8 17.5-47.7L79 25.9c-.1-.2-.2-.3-.2-.5-.9-.9-1.7-1.7-2.6-2.5z"/><circle class="dst0" cx="84.3" cy="97.9" r="14.8"/><path class="dst0" d="M207.4 148.9c-5-5.9-9.1-12.4-12.2-19.4-3.7-8-6.6-16.5-9.6-24.8l-13.9-38-23-63.1-1-2.7H56c12.1 6.4 22.9 15 32 25.3 5 5.9 9.1 12.4 12.2 19.4 1.3 2.7 2.4 5.5 3.5 8.3 4.8 13 9.5 26 14.3 39 2.5 6.7 5 13.4 7.4 20.1 2.1 6 5 11.8 5.6 18.3.7 8.8-3.4 16.1-8.4 23-2.6 3.5-5.4 6.7-8.6 9.8-1.9 1.8-3.8 3.5-5.8 5.2-1.2 1-4.9 5-6.4 5h137.6c-12.1-6.6-22.9-15.2-32-25.4z"/></symbol><symbol viewBox="0 0 197 172" id="logo_03_s" xmlns="http://www.w3.org/2000/svg"><path d="M128.3 0c7.887 0 15.584 2.18 22.26 6.265l.54.335c12.256 7.808 19.823 21.184 19.997 35.688l.003.512v55l26 12.7h-83.9l-.665-.649.565.649h-32l14.8-19.8.615.709L96 90.7l10.7-14.3 30.5-40.7H33.9v24.9h45.2v-.1h7.4l-4.7 6.2-17.7 23.6-9.5 12.7-24.3 32.4h166.8l-26 12.3v23.4H42.7c-9.404 0-18.52-3.07-25.939-8.836l-.461-.364C6.145 153.914.17 141.748.004 128.853L0 128.3V0h128.3z"/></symbol><symbol viewBox="0 0 223.57 167.92" id="logo_04_s" xmlns="http://www.w3.org/2000/svg"><path d="M0 0v167.92h33.23V33.23L0 0zm47.59 47.59v120.33h33.22V80.81L47.59 47.59zm64.19 64.19L95.17 95.17v72.75h33.23V95.17l-16.62 16.61zm30.98-30.97v87.11h33.22V47.59l-33.22 33.22zm47.58-47.58v134.69h33.23V0l-33.23 33.23z"/></symbol><symbol id="logo_05_s" viewBox="0 0 252.8 165" xml:space="preserve" xmlns="http://www.w3.org/2000/svg"><style>.gst0{fill:#1d1d1b}</style><path class="gst0" d="M102.7 82.1L73.3 36.3 9.6 158.7h53.1z"/><path class="gst0" d="M102.7 82.1l-26.9 51.4L9.6 6.2h53.1zm70.2 0l-29.3-45.8-63.8 122.4H133z"/><path class="gst0" d="M172.9 82.1l-26.8 51.4L79.8 6.2H133zm70.3 0l-29.3-45.8-63.8 122.4h53.2z"/><path class="gst0" d="M243.2 82.1l-26.8 51.4L150.1 6.2h53.2z"/></symbol><symbol viewBox="0 0 198 172" id="logo_06_s" xmlns="http://www.w3.org/2000/svg"><path d="M98.79 171.1l49.39-85.55 49.39 85.55zM0 171.1l49.39-85.55 49.4 85.55zm49.39-85.55L98.79 0l49.39 85.55z"/></symbol><symbol viewBox="0 0 322 315" id="logo_s" xmlns="http://www.w3.org/2000/svg"><path d="M176.48 0l145.156 145.157-32.527 32.527-44.647-44.648v178.34h-46.464v-73.76h-45.196v8.76c0 41.133-29.23 68.174-76.837 68.174C28.23 314.55 0 287.51 0 246.376V128.183l46.094-.001L176.48 0zm-70.27 129.43H46.591v111.995c0 21.328 8.554 34.024 29.374 34.024 20.693 0 30.246-12.696 30.246-34.024l-.001-111.995zm69.968-64.677l-65.621 63.429h42.246l-.001 71.856h45.196v-71.855l41.61-.001-63.43-63.43z"/></symbol></svg>